# xmcd
#
# Track frame offsets:
#	150
#	12383
#	24110
#	36000
#	47678
#	60575
#	80450
#	90763
#	112760
#	125258
#	142565
#	166438
#	179360
#	191150
#	204918
#	224540
#	240463
#	250450
#	267913
#	281068
#
# Disc length: 3924 seconds
#
# Revision: 2
# Processed by: cddbd v1.4PL0 Copyright (c) Steve Scherf et al.
# Submitted via: audiograbber 1.82.02
#
DISCID=050f5214
DTITLE=Various Artist - Blues Brother Soul Sister
DYEAR=1900
DGENRE=
TTITLE0=John Lee Hooker - Boom Boom
TTITLE1=Erma Franklin - (Take A Little) Piece Of My Heart
TTITLE2=Sam and Dave - Soul Man
TTITLE3=Etta James - I'd Rather Go Blind
TTITLE4=Booker T. And The Mg's - Green Onions
TTITLE5=The Isley Brothers - Shout
TTITLE6=Aretha Franklin - Think
TTITLE7=Staple Singers - Respect Yourself
TTITLE8=Bob and Earl - Harlem Shuffle
TTITLE9=Otis Redding - Try A Little Tenderness
TTITLE10=Muddy Waters - Mannish Boy
TTITLE11=Fontella Bass - Rescue Me
TTITLE12=Wilson Pickett - In The Midnight Hour
TTITLE13=Eddi Floyd - Knock On Wood
TTITLE14=Little Milton - Stormy Monday
TTITLE15=Dobie Gray - Drift Away
TTITLE16=Betty Everett - The Shoop Shoop Song (It's In His Kiss)
TTITLE17=Fleetwood Mac - Need Your Love So Bad
TTITLE18=Carla Thomas - B-A-B-Y
TTITLE19=Ben E. King - Stand By Me
EXTD=
EXTT0=
EXTT1=
EXTT2=
EXTT3=
EXTT4=
EXTT5=
EXTT6=
EXTT7=
EXTT8=
EXTT9=
EXTT10=
EXTT11=
EXTT12=
EXTT13=
EXTT14=
EXTT15=
EXTT16=
EXTT17=
EXTT18=
EXTT19=
PLAYORDER=
